<?xml version="1.0" encoding="UTF-8" standalone="no"?>
<!-- Created with Inkscape (http://www.inkscape.org/) -->
<svg
   xmlns:dc="http://purl.org/dc/elements/1.1/"
   xmlns:cc="http://web.resource.org/cc/"
   xmlns:rdf="http://www.w3.org/1999/02/22-rdf-syntax-ns#"
   xmlns:svg="http://www.w3.org/2000/svg"
   xmlns="http://www.w3.org/2000/svg"
   xmlns:xlink="http://www.w3.org/1999/xlink"
   xmlns:sodipodi="http://sodipodi.sourceforge.net/DTD/sodipodi-0.dtd"
   xmlns:inkscape="http://www.inkscape.org/namespaces/inkscape"
   width="600"
   height="205"
   id="svg2"
   sodipodi:version="0.32"
   inkscape:version="0.44.1"
   version="1.0"
   sodipodi:docbase="/Users/bdesham/Documents/Miscellaneous/Commons images"
   sodipodi:docname="Binary symmetric channel (en) (export).svg">
  <defs
     id="defs4">
    <marker
       inkscape:stockid="Dot_m"
       orient="auto"
       refY="0"
       refX="0"
       id="Dot_m"
       style="overflow:visible">
      <path
         id="path3777"
         d="M -2.5,-1 C -2.5,1.76 -4.74,4 -7.5,4 C -10.26,4 -12.5,1.76 -12.5,-1 C -12.5,-3.76 -10.26,-6 -7.5,-6 C -4.74,-6 -2.5,-3.76 -2.5,-1 z "
         style="fill-rule:evenodd;stroke:black;stroke-width:1pt;marker-start:none;marker-end:none"
         transform="matrix(0.4,0,0,0.4,2.96,0.4)" />
    </marker>
    <linearGradient
       id="linearGradient4752">
      <stop
         style="stop-color:#c00;stop-opacity:1;"
         offset="0"
         id="stop4754" />
      <stop
         id="stop4778"
         offset="0.5"
         style="stop-color:#900000;stop-opacity:0.57731956;" />
      <stop
         style="stop-color:#4e9a06;stop-opacity:0;"
         offset="1"
         id="stop4756" />
    </linearGradient>
    <linearGradient
       inkscape:collect="always"
       id="linearGradient4742">
      <stop
         style="stop-color:#4e9a06;stop-opacity:1;"
         offset="0"
         id="stop4744" />
      <stop
         style="stop-color:#4e9a06;stop-opacity:0;"
         offset="1"
         id="stop4746" />
    </linearGradient>
    <marker
       inkscape:stockid="Arrow2Mend"
       orient="auto"
       refY="0"
       refX="0"
       id="Arrow2Mend"
       style="overflow:visible">
      <path
         id="path3815"
         style="font-size:12px;fill-rule:evenodd;stroke-width:0.625;stroke-linejoin:round"
         d="M 8.7185878,4.0337352 L -2.2072895,0.016013256 L 8.7185884,-4.0017078 C 6.97309,-1.6296469 6.9831476,1.6157441 8.7185878,4.0337352 z "
         transform="scale(-0.6,-0.6)" />
    </marker>
    <linearGradient
       inkscape:collect="always"
       xlink:href="#linearGradient4742"
       id="linearGradient5850"
       gradientUnits="userSpaceOnUse"
       gradientTransform="translate(-88.58266,44.29132)"
       x1="131.93651"
       y1="208.16931"
       x2="266.68552"
       y2="208.16931" />
    <radialGradient
       inkscape:collect="always"
       xlink:href="#linearGradient4752"
       id="radialGradient5852"
       gradientUnits="userSpaceOnUse"
       gradientTransform="matrix(1,0,0,0.34261,88.58267,174.8234)"
       cx="155.01968"
       cy="252.46065"
       fx="155.01968"
       fy="252.46065"
       r="67.374504" />
    <linearGradient
       inkscape:collect="always"
       xlink:href="#linearGradient4742"
       id="linearGradient5854"
       gradientUnits="userSpaceOnUse"
       gradientTransform="translate(248.0315,62.00785)"
       x1="131.93651"
       y1="208.16931"
       x2="266.68552"
       y2="208.16931" />
    <radialGradient
       inkscape:collect="always"
       xlink:href="#linearGradient4752"
       id="radialGradient5856"
       gradientUnits="userSpaceOnUse"
       gradientTransform="matrix(1,0,0,0.34261,292.3229,183.6816)"
       cx="155.01968"
       cy="252.46065"
       fx="155.01968"
       fy="252.46065"
       r="67.374504" />
  </defs>
  <sodipodi:namedview
     id="base"
     pagecolor="#ffffff"
     bordercolor="#666666"
     borderopacity="1.0"
     gridtolerance="10000"
     guidetolerance="10"
     objecttolerance="10"
     inkscape:pageopacity="0.0"
     inkscape:pageshadow="2"
     inkscape:zoom="1.8752098"
     inkscape:cx="356.47221"
     inkscape:cy="91.797726"
     inkscape:document-units="px"
     inkscape:current-layer="layer1"
     width="600px"
     height="205px"
     units="px"
     showgrid="false"
     gridspacingx="0.25cm"
     gridspacingy="0.25cm"
     grid_units="cm"
     inkscape:grid-points="true"
     inkscape:grid-bbox="false"
     inkscape:window-width="1440"
     inkscape:window-height="785"
     inkscape:window-x="0"
     inkscape:window-y="22" />
  <metadata
     id="metadata7">
    <rdf:RDF>
      <cc:Work
         rdf:about="">
        <dc:format>image/svg+xml</dc:format>
        <dc:type
           rdf:resource="http://purl.org/dc/dcmitype/StillImage" />
        <dc:title>Binary symmetric channel</dc:title>
        <dc:date>2007-06-08</dc:date>
        <dc:creator>
          <cc:Agent>
            <dc:title>Benjamin Esham &lt;bdesham@gmail.com&gt;</dc:title>
          </cc:Agent>
        </dc:creator>
        <dc:language>en</dc:language>
        <cc:license
           rdf:resource="http://web.resource.org/cc/PublicDomain" />
      </cc:Work>
      <cc:License
         rdf:about="http://web.resource.org/cc/PublicDomain">
        <cc:permits
           rdf:resource="http://web.resource.org/cc/Reproduction" />
        <cc:permits
           rdf:resource="http://web.resource.org/cc/Distribution" />
        <cc:permits
           rdf:resource="http://web.resource.org/cc/DerivativeWorks" />
      </cc:License>
    </rdf:RDF>
  </metadata>
  <g
     inkscape:label="Layer 1"
     inkscape:groupmode="layer"
     id="layer1"
     transform="translate(0.77273,-36.75166)">
    <g
       id="g5956">
      <path
         style="fill:black;fill-opacity:1;stroke:none;stroke-width:1.25;stroke-linecap:butt;stroke-linejoin:miter;stroke-miterlimit:4;stroke-dashoffset:0;stroke-opacity:1"
         d="M 34.8125,212.9375 L 34.8125,214.1875 L 575.15625,214.1875 L 575.15625,212.9375 L 34.8125,212.9375 z "
         id="path4780" />
      <path
         style="fill-rule:evenodd;stroke:black;stroke-width:0.4pt;marker-start:none;marker-end:none"
         d="M 37.261237,213.57513 C 37.261237,214.95513 36.141237,216.07513 34.761237,216.07513 C 33.381237,216.07513 32.261237,214.95513 32.261237,213.57513 C 32.261237,212.19513 33.381237,211.07513 34.761237,211.07513 C 36.141237,211.07513 37.261237,212.19513 37.261237,213.57513 z "
         id="path5962" />
      <path
         style="fill-rule:evenodd;stroke:black;stroke-width:0.4pt;marker-start:none;marker-end:none"
         d="M 577.61557,213.57513 C 577.61557,214.95513 576.49557,216.07513 575.11557,216.07513 C 573.73557,216.07513 572.61557,214.95513 572.61557,213.57513 C 572.61557,212.19513 573.73557,211.07513 575.11557,211.07513 C 576.49557,211.07513 577.61557,212.19513 577.61557,213.57513 z "
         id="path5964" />
    </g>
    <path
       style="font-size:18px;font-style:normal;font-weight:normal;fill:black;fill-opacity:1;stroke:none;stroke-width:1px;stroke-linecap:butt;stroke-linejoin:miter;stroke-opacity:1;font-family:DejaVu Sans"
       d="M 75.713058,70.591743 L 73.572433,76.396431 L 77.861496,76.396431 L 75.713058,70.591743 M 74.822433,69.037056 L 76.611496,69.037056 L 81.056808,80.701118 L 79.416183,80.701118 L 78.353683,77.708931 L 73.095871,77.708931 L 72.033371,80.701118 L 70.369308,80.701118 L 74.822433,69.037056 M 82.689621,68.544868 L 84.127121,68.544868 L 84.127121,80.701118 L 82.689621,80.701118 L 82.689621,68.544868 M 87.127121,71.951118 L 88.564621,71.951118 L 88.564621,80.701118 L 87.127121,80.701118 L 87.127121,71.951118 M 87.127121,68.544868 L 88.564621,68.544868 L 88.564621,70.365181 L 87.127121,70.365181 L 87.127121,68.544868 M 97.861496,72.287056 L 97.861496,73.630806 C 97.455239,73.406855 97.046385,73.240188 96.634933,73.130806 C 96.228677,73.01623 95.817219,72.958939 95.400558,72.958931 C 94.468262,72.958939 93.744305,73.255813 93.228683,73.849556 C 92.713056,74.438104 92.455244,75.266228 92.455246,76.333931 C 92.455244,77.401643 92.713056,78.232371 93.228683,78.826118 C 93.744305,79.414661 94.468262,79.708932 95.400558,79.708931 C 95.817219,79.708932 96.228677,79.654245 96.634933,79.544868 C 97.046385,79.430286 97.455239,79.261016 97.861496,79.037056 L 97.861496,80.365181 C 97.460447,80.552681 97.043781,80.693306 96.611496,80.787056 C 96.184407,80.880806 95.728678,80.927681 95.244308,80.927681 C 93.926596,80.927681 92.879722,80.513619 92.103683,79.685493 C 91.327641,78.85737 90.93962,77.740184 90.939621,76.333931 C 90.93962,74.906853 91.330245,73.784459 92.111496,72.966743 C 92.897951,72.149044 93.973471,71.74019 95.338058,71.740181 C 95.780761,71.74019 96.213052,71.787065 96.634933,71.880806 C 97.056801,71.969356 97.465655,72.104773 97.861496,72.287056 M 107.8615,75.966743 L 107.8615,76.669868 L 101.25212,76.669868 C 101.31462,77.659455 101.61149,78.414662 102.14275,78.935493 C 102.6792,79.45112 103.42399,79.708932 104.37712,79.708931 C 104.9292,79.708932 105.46305,79.641224 105.97868,79.505806 C 106.49951,79.370391 107.01513,79.167266 107.52556,78.896431 L 107.52556,80.255806 C 107.00993,80.474556 106.48128,80.641223 105.93962,80.755806 C 105.39795,80.870389 104.84847,80.927681 104.29118,80.927681 C 102.89535,80.927681 101.78858,80.521431 100.97087,79.708931 C 100.15837,78.896433 99.75212,77.797476 99.752121,76.412056 C 99.75212,74.97977 100.13754,73.844354 100.90837,73.005806 C 101.68441,72.162065 102.72868,71.74019 104.04118,71.740181 C 105.21826,71.74019 106.14795,72.120398 106.83025,72.880806 C 107.51774,73.636021 107.86149,74.664666 107.8615,75.966743 M 106.424,75.544868 C 106.41357,74.758416 106.19222,74.130813 105.75993,73.662056 C 105.33284,73.193313 104.76514,72.958939 104.05681,72.958931 C 103.25472,72.958939 102.61149,73.185501 102.12712,73.638618 C 101.64795,74.09175 101.37191,74.72977 101.299,75.552681 L 106.424,75.544868 M 55.627121,88.560493 C 54.9292,89.758421 54.410971,90.943316 54.072433,92.115181 C 53.733889,93.287063 53.564618,94.474562 53.564621,95.677681 C 53.564618,96.88081 53.733889,98.073517 54.072433,99.255806 C 54.41618,100.43289 54.934408,101.61778 55.627121,102.81049 L 54.377121,102.81049 C 53.595868,101.58653 53.009931,100.38341 52.619308,99.201118 C 52.23389,98.018829 52.041182,96.844351 52.041183,95.677681 C 52.041182,94.516229 52.23389,93.346959 52.619308,92.169868 C 53.004723,90.992795 53.59066,89.789671 54.377121,88.560493 L 55.627121,88.560493 M 65.908371,95.966743 L 65.908371,96.669868 L 59.298996,96.669868 C 59.361494,97.659455 59.658368,98.414662 60.189621,98.935493 C 60.726075,99.45112 61.470866,99.708932 62.423996,99.708931 C 62.976073,99.708932 63.509927,99.641224 64.025558,99.505806 C 64.546384,99.370391 65.062009,99.167266 65.572433,98.896431 L 65.572433,100.25581 C 65.0568,100.47456 64.528155,100.64122 63.986496,100.75581 C 63.444823,100.87039 62.895344,100.92768 62.338058,100.92768 C 60.942221,100.92768 59.835451,100.52143 59.017746,99.708931 C 58.205245,98.896433 57.798995,97.797476 57.798996,96.412056 C 57.798995,94.97977 58.184411,93.844354 58.955246,93.005806 C 59.731285,92.162065 60.775555,91.74019 62.088058,91.740181 C 63.265135,91.74019 64.194822,92.120398 64.877121,92.880806 C 65.564612,93.636021 65.908362,94.664666 65.908371,95.966743 M 64.470871,95.544868 C 64.460447,94.758416 64.239093,94.130813 63.806808,93.662056 C 63.379719,93.193313 62.812011,92.958939 62.103683,92.958931 C 61.301596,92.958939 60.658367,93.185501 60.173996,93.638618 C 59.694827,94.09175 59.418785,94.72977 59.345871,95.552681 L 64.470871,95.544868 M 75.509933,95.419868 L 75.509933,100.70112 L 74.072433,100.70112 L 74.072433,95.466743 C 74.072426,94.638625 73.910968,94.018833 73.588058,93.607368 C 73.265135,93.195918 72.780761,92.990189 72.134933,92.990181 C 71.358887,92.990189 70.746909,93.237584 70.298996,93.732368 C 69.851076,94.227167 69.627118,94.901645 69.627121,95.755806 L 69.627121,100.70112 L 68.181808,100.70112 L 68.181808,91.951118 L 69.627121,91.951118 L 69.627121,93.310493 C 69.970868,92.78446 70.374513,92.391231 70.838058,92.130806 C 71.306804,91.870398 71.845866,91.74019 72.455246,91.740181 C 73.460448,91.74019 74.220863,92.05269 74.736496,92.677681 C 75.252112,93.29748 75.509925,94.211542 75.509933,95.419868 M 84.689621,92.287056 L 84.689621,93.630806 C 84.283364,93.406855 83.87451,93.240188 83.463058,93.130806 C 83.056802,93.01623 82.645344,92.958939 82.228683,92.958931 C 81.296387,92.958939 80.57243,93.255813 80.056808,93.849556 C 79.541181,94.438104 79.283369,95.266228 79.283371,96.333931 C 79.283369,97.401643 79.541181,98.232371 80.056808,98.826118 C 80.57243,99.414661 81.296387,99.708932 82.228683,99.708931 C 82.645344,99.708932 83.056802,99.654245 83.463058,99.544868 C 83.87451,99.430286 84.283364,99.261016 84.689621,99.037056 L 84.689621,100.36518 C 84.288572,100.55268 83.871906,100.69331 83.439621,100.78706 C 83.012532,100.88081 82.556803,100.92768 82.072433,100.92768 C 80.754721,100.92768 79.707847,100.51362 78.931808,99.685493 C 78.155766,98.85737 77.767745,97.740184 77.767746,96.333931 C 77.767745,94.906853 78.15837,93.784459 78.939621,92.966743 C 79.726076,92.149044 80.801596,91.74019 82.166183,91.740181 C 82.608886,91.74019 83.041177,91.787065 83.463058,91.880806 C 83.884926,91.969356 84.29378,92.104773 84.689621,92.287056 M 90.595871,92.958931 C 89.825034,92.958939 89.215659,93.261022 88.767746,93.865181 C 88.319827,94.464146 88.095869,95.287061 88.095871,96.333931 C 88.095869,97.380809 88.317223,98.206329 88.759933,98.810493 C 89.207847,99.409453 89.819825,99.708932 90.595871,99.708931 C 91.36149,99.708932 91.968261,99.406849 92.416183,98.802681 C 92.864093,98.198517 93.088051,97.375601 93.088058,96.333931 C 93.088051,95.297478 92.864093,94.477166 92.416183,93.872993 C 91.968261,93.263626 91.36149,92.958939 90.595871,92.958931 M 90.595871,91.740181 C 91.845865,91.74019 92.827635,92.14644 93.541183,92.958931 C 94.254717,93.771438 94.611487,94.896437 94.611496,96.333931 C 94.611487,97.766226 94.254717,98.891224 93.541183,99.708931 C 92.827635,100.52143 91.845865,100.92768 90.595871,100.92768 C 89.340659,100.92768 88.356285,100.52143 87.642746,99.708931 C 86.934411,98.891224 86.580245,97.766226 86.580246,96.333931 C 86.580245,94.896437 86.934411,93.771438 87.642746,92.958931 C 88.356285,92.14644 89.340659,91.74019 90.595871,91.740181 M 102.74431,93.279243 L 102.74431,88.544868 L 104.18181,88.544868 L 104.18181,100.70112 L 102.74431,100.70112 L 102.74431,99.388618 C 102.44222,99.909453 102.05941,100.29747 101.59587,100.55268 C 101.13753,100.80268 100.58545,100.92768 99.939621,100.92768 C 98.882326,100.92768 98.020348,100.50581 97.353683,99.662056 C 96.692224,98.818308 96.361495,97.708934 96.361496,96.333931 C 96.361495,94.958937 96.692224,93.849563 97.353683,93.005806 C 98.020348,92.162065 98.882326,91.74019 99.939621,91.740181 C 100.58545,91.74019 101.13753,91.867794 101.59587,92.122993 C 102.05941,92.373002 102.44222,92.758418 102.74431,93.279243 M 97.845871,96.333931 C 97.845869,97.391226 98.062014,98.221954 98.494308,98.826118 C 98.931805,99.425078 99.530763,99.724557 100.29118,99.724556 C 101.05159,99.724557 101.65055,99.425078 102.08806,98.826118 C 102.52555,98.221954 102.7443,97.391226 102.74431,96.333931 C 102.7443,95.276645 102.52555,94.448521 102.08806,93.849556 C 101.65055,93.245397 101.05159,92.943314 100.29118,92.943306 C 99.530763,92.943314 98.931805,93.245397 98.494308,93.849556 C 98.062014,94.448521 97.845869,95.276645 97.845871,96.333931 M 114.62712,95.966743 L 114.62712,96.669868 L 108.01775,96.669868 C 108.08024,97.659455 108.37712,98.414662 108.90837,98.935493 C 109.44483,99.45112 110.18962,99.708932 111.14275,99.708931 C 111.69482,99.708932 112.22868,99.641224 112.74431,99.505806 C 113.26513,99.370391 113.78076,99.167266 114.29118,98.896431 L 114.29118,100.25581 C 113.77555,100.47456 113.24691,100.64122 112.70525,100.75581 C 112.16357,100.87039 111.61409,100.92768 111.05681,100.92768 C 109.66097,100.92768 108.5542,100.52143 107.7365,99.708931 C 106.92399,98.896433 106.51775,97.797476 106.51775,96.412056 C 106.51775,94.97977 106.90316,93.844354 107.674,93.005806 C 108.45003,92.162065 109.4943,91.74019 110.80681,91.740181 C 111.98389,91.74019 112.91357,92.120398 113.59587,92.880806 C 114.28336,93.636021 114.62711,94.664666 114.62712,95.966743 M 113.18962,95.544868 C 113.1792,94.758416 112.95784,94.130813 112.52556,93.662056 C 112.09847,93.193313 111.53076,92.958939 110.82243,92.958931 C 110.02035,92.958939 109.37712,93.185501 108.89275,93.638618 C 108.41358,94.09175 108.13754,94.72977 108.06462,95.552681 L 113.18962,95.544868 M 122.02556,93.294868 C 121.86409,93.201126 121.68701,93.133418 121.49431,93.091743 C 121.3068,93.044876 121.09847,93.021439 120.86931,93.021431 C 120.0568,93.021439 119.4318,93.287063 118.99431,93.818306 C 118.56201,94.344354 118.34587,95.102166 118.34587,96.091743 L 118.34587,100.70112 L 116.90056,100.70112 L 116.90056,91.951118 L 118.34587,91.951118 L 118.34587,93.310493 C 118.64795,92.779251 119.04118,92.386023 119.52556,92.130806 C 120.00993,91.870398 120.59847,91.74019 121.29118,91.740181 C 121.39014,91.74019 121.49951,91.748002 121.61931,91.763618 C 121.73909,91.774044 121.87191,91.792273 122.01775,91.818306 L 122.02556,93.294868 M 123.29118,88.560493 L 124.54118,88.560493 C 125.32243,89.789671 125.90576,90.992795 126.29118,92.169868 C 126.6818,93.346959 126.87712,94.516229 126.87712,95.677681 C 126.87712,96.844351 126.6818,98.018829 126.29118,99.201118 C 125.90576,100.38341 125.32243,101.58653 124.54118,102.81049 L 123.29118,102.81049 C 123.98389,101.61778 124.49951,100.43289 124.83806,99.255806 C 125.18181,98.073517 125.35368,96.88081 125.35368,95.677681 C 125.35368,94.474562 125.18181,93.287063 124.83806,92.115181 C 124.49951,90.943316 123.98389,89.758421 123.29118,88.560493"
       id="text1872" />
    <path
       style="font-size:16px;font-style:normal;font-weight:normal;text-align:center;text-anchor:middle;fill:black;fill-opacity:1;stroke:none;stroke-width:1px;stroke-linecap:butt;stroke-linejoin:miter;stroke-opacity:1;font-family:DejaVu Sans"
       d="M 472.0148,75.130806 L 472.0148,79.404243 L 474.54605,79.404243 C 475.395,79.404245 476.02261,79.229766 476.42886,78.880806 C 476.84031,78.526641 477.04604,77.98758 477.04605,77.263618 C 477.04604,76.534456 476.84031,75.997998 476.42886,75.654243 C 476.02261,75.305291 475.395,75.130812 474.54605,75.130806 L 472.0148,75.130806 M 472.0148,70.333931 L 472.0148,73.849556 L 474.35074,73.849556 C 475.12157,73.849563 475.69448,73.706334 476.06949,73.419868 C 476.44969,73.128209 476.63979,72.685501 476.6398,72.091743 C 476.63979,71.503211 476.44969,71.063107 476.06949,70.771431 C 475.69448,70.479775 475.12157,70.333941 474.35074,70.333931 L 472.0148,70.333931 M 470.43668,69.037056 L 474.46793,69.037056 C 475.67104,69.037068 476.59813,69.287067 477.24918,69.787056 C 477.90021,70.287066 478.22573,70.998003 478.22574,71.919868 C 478.22573,72.633418 478.05906,73.201126 477.72574,73.622993 C 477.3924,74.044875 476.90281,74.307896 476.25699,74.412056 C 477.03302,74.578729 477.63458,74.927687 478.06168,75.458931 C 478.49396,75.984977 478.7101,76.643831 478.71011,77.435493 C 478.7101,78.477162 478.35594,79.281849 477.64761,79.849556 C 476.93927,80.417265 475.93146,80.701118 474.62418,80.701118 L 470.43668,80.701118 L 470.43668,69.037056 M 484.73355,72.958931 C 483.96271,72.958939 483.35334,73.261022 482.90543,73.865181 C 482.45751,74.464146 482.23355,75.287061 482.23355,76.333931 C 482.23355,77.380809 482.4549,78.206329 482.89761,78.810493 C 483.34553,79.409453 483.95751,79.708932 484.73355,79.708931 C 485.49917,79.708932 486.10594,79.406849 486.55386,78.802681 C 487.00177,78.198517 487.22573,77.375601 487.22574,76.333931 C 487.22573,75.297478 487.00177,74.477166 486.55386,73.872993 C 486.10594,73.263626 485.49917,72.958939 484.73355,72.958931 M 484.73355,71.740181 C 485.98354,71.74019 486.96531,72.14644 487.67886,72.958931 C 488.3924,73.771438 488.74917,74.896437 488.74918,76.333931 C 488.74917,77.766226 488.3924,78.891224 487.67886,79.708931 C 486.96531,80.521431 485.98354,80.927681 484.73355,80.927681 C 483.47834,80.927681 482.49397,80.521431 481.78043,79.708931 C 481.07209,78.891224 480.71793,77.766226 480.71793,76.333931 C 480.71793,74.896437 481.07209,73.771438 481.78043,72.958931 C 482.49397,72.14644 483.47834,71.74019 484.73355,71.740181 M 497.40543,76.333931 C 497.40542,75.276645 497.18667,74.448521 496.74918,73.849556 C 496.31688,73.245397 495.72052,72.943314 494.96011,72.943306 C 494.19969,72.943314 493.60073,73.245397 493.16324,73.849556 C 492.73094,74.448521 492.5148,75.276645 492.5148,76.333931 C 492.5148,77.391226 492.73094,78.221954 493.16324,78.826118 C 493.60073,79.425078 494.19969,79.724557 494.96011,79.724556 C 495.72052,79.724557 496.31688,79.425078 496.74918,78.826118 C 497.18667,78.221954 497.40542,77.391226 497.40543,76.333931 M 492.5148,73.279243 C 492.81688,72.758418 493.19709,72.373002 493.65543,72.122993 C 494.11896,71.867794 494.67105,71.74019 495.31168,71.740181 C 496.37417,71.74019 497.23615,72.162065 497.89761,73.005806 C 498.56427,73.849563 498.8976,74.958937 498.89761,76.333931 C 498.8976,77.708934 498.56427,78.818308 497.89761,79.662056 C 497.23615,80.505806 496.37417,80.927681 495.31168,80.927681 C 494.67105,80.927681 494.11896,80.802681 493.65543,80.552681 C 493.19709,80.297473 492.81688,79.909453 492.5148,79.388618 L 492.5148,80.701118 L 491.06949,80.701118 L 491.06949,68.544868 L 492.5148,68.544868 L 492.5148,73.279243 M 450.48355,88.560493 C 449.78563,89.758421 449.2674,90.943316 448.92886,92.115181 C 448.59032,93.287063 448.42105,94.474562 448.42105,95.677681 C 448.42105,96.88081 448.59032,98.073517 448.92886,99.255806 C 449.27261,100.43289 449.79084,101.61778 450.48355,102.81049 L 449.23355,102.81049 C 448.4523,101.58653 447.86636,100.38341 447.47574,99.201118 C 447.09032,98.018829 446.89761,96.844351 446.89761,95.677681 C 446.89761,94.516229 447.09032,93.346959 447.47574,92.169868 C 447.86115,90.992795 448.44709,89.789671 449.23355,88.560493 L 450.48355,88.560493 M 459.03824,93.279243 L 459.03824,88.544868 L 460.47574,88.544868 L 460.47574,100.70112 L 459.03824,100.70112 L 459.03824,99.388618 C 458.73615,99.909453 458.35334,100.29747 457.8898,100.55268 C 457.43146,100.80268 456.87938,100.92768 456.23355,100.92768 C 455.17626,100.92768 454.31428,100.50581 453.64761,99.662056 C 452.98615,98.818308 452.65543,97.708934 452.65543,96.333931 C 452.65543,94.958937 452.98615,93.849563 453.64761,93.005806 C 454.31428,92.162065 455.17626,91.74019 456.23355,91.740181 C 456.87938,91.74019 457.43146,91.867794 457.8898,92.122993 C 458.35334,92.373002 458.73615,92.758418 459.03824,93.279243 M 454.1398,96.333931 C 454.1398,97.391226 454.35594,98.221954 454.78824,98.826118 C 455.22574,99.425078 455.82469,99.724557 456.58511,99.724556 C 457.34552,99.724557 457.94448,99.425078 458.38199,98.826118 C 458.81948,98.221954 459.03823,97.391226 459.03824,96.333931 C 459.03823,95.276645 458.81948,94.448521 458.38199,93.849556 C 457.94448,93.245397 457.34552,92.943314 456.58511,92.943306 C 455.82469,92.943314 455.22574,93.245397 454.78824,93.849556 C 454.35594,94.448521 454.1398,95.276645 454.1398,96.333931 M 470.92105,95.966743 L 470.92105,96.669868 L 464.31168,96.669868 C 464.37417,97.659455 464.67105,98.414662 465.2023,98.935493 C 465.73876,99.45112 466.48355,99.708932 467.43668,99.708931 C 467.98875,99.708932 468.52261,99.641224 469.03824,99.505806 C 469.55906,99.370391 470.07469,99.167266 470.58511,98.896431 L 470.58511,100.25581 C 470.06948,100.47456 469.54084,100.64122 468.99918,100.75581 C 468.4575,100.87039 467.90802,100.92768 467.35074,100.92768 C 465.9549,100.92768 464.84813,100.52143 464.03043,99.708931 C 463.21792,98.896433 462.81168,97.797476 462.81168,96.412056 C 462.81168,94.97977 463.19709,93.844354 463.96793,93.005806 C 464.74396,92.162065 465.78823,91.74019 467.10074,91.740181 C 468.27782,91.74019 469.2075,92.120398 469.8898,92.880806 C 470.57729,93.636021 470.92104,94.664666 470.92105,95.966743 M 469.48355,95.544868 C 469.47313,94.758416 469.25177,94.130813 468.81949,93.662056 C 468.3924,93.193313 467.82469,92.958939 467.11636,92.958931 C 466.31428,92.958939 465.67105,93.185501 465.18668,93.638618 C 464.70751,94.09175 464.43147,94.72977 464.35855,95.552681 L 469.48355,95.544868 M 479.54605,92.287056 L 479.54605,93.630806 C 479.13979,93.406855 478.73094,93.240188 478.31949,93.130806 C 477.91323,93.01623 477.50177,92.958939 477.08511,92.958931 C 476.15282,92.958939 475.42886,93.255813 474.91324,93.849556 C 474.39761,94.438104 474.1398,95.266228 474.1398,96.333931 C 474.1398,97.401643 474.39761,98.232371 474.91324,98.826118 C 475.42886,99.414661 476.15282,99.708932 477.08511,99.708931 C 477.50177,99.708932 477.91323,99.654245 478.31949,99.544868 C 478.73094,99.430286 479.13979,99.261016 479.54605,99.037056 L 479.54605,100.36518 C 479.145,100.55268 478.72834,100.69331 478.29605,100.78706 C 477.86896,100.88081 477.41323,100.92768 476.92886,100.92768 C 475.61115,100.92768 474.56428,100.51362 473.78824,99.685493 C 473.0122,98.85737 472.62418,97.740184 472.62418,96.333931 C 472.62418,94.906853 473.0148,93.784459 473.79605,92.966743 C 474.58251,92.149044 475.65803,91.74019 477.02261,91.740181 C 477.46532,91.74019 477.89761,91.787065 478.31949,91.880806 C 478.74136,91.969356 479.15021,92.104773 479.54605,92.287056 M 485.4523,92.958931 C 484.68146,92.958939 484.07209,93.261022 483.62418,93.865181 C 483.17626,94.464146 482.9523,95.287061 482.9523,96.333931 C 482.9523,97.380809 483.17365,98.206329 483.61636,98.810493 C 484.06428,99.409453 484.67626,99.708932 485.4523,99.708931 C 486.21792,99.708932 486.82469,99.406849 487.27261,98.802681 C 487.72052,98.198517 487.94448,97.375601 487.94449,96.333931 C 487.94448,95.297478 487.72052,94.477166 487.27261,93.872993 C 486.82469,93.263626 486.21792,92.958939 485.4523,92.958931 M 485.4523,91.740181 C 486.70229,91.74019 487.68406,92.14644 488.39761,92.958931 C 489.11115,93.771438 489.46792,94.896437 489.46793,96.333931 C 489.46792,97.766226 489.11115,98.891224 488.39761,99.708931 C 487.68406,100.52143 486.70229,100.92768 485.4523,100.92768 C 484.19709,100.92768 483.21272,100.52143 482.49918,99.708931 C 481.79084,98.891224 481.43668,97.766226 481.43668,96.333931 C 481.43668,94.896437 481.79084,93.771438 482.49918,92.958931 C 483.21272,92.14644 484.19709,91.74019 485.4523,91.740181 M 497.60074,93.279243 L 497.60074,88.544868 L 499.03824,88.544868 L 499.03824,100.70112 L 497.60074,100.70112 L 497.60074,99.388618 C 497.29865,99.909453 496.91584,100.29747 496.4523,100.55268 C 495.99396,100.80268 495.44188,100.92768 494.79605,100.92768 C 493.73876,100.92768 492.87678,100.50581 492.21011,99.662056 C 491.54865,98.818308 491.21793,97.708934 491.21793,96.333931 C 491.21793,94.958937 491.54865,93.849563 492.21011,93.005806 C 492.87678,92.162065 493.73876,91.74019 494.79605,91.740181 C 495.44188,91.74019 495.99396,91.867794 496.4523,92.122993 C 496.91584,92.373002 497.29865,92.758418 497.60074,93.279243 M 492.7023,96.333931 C 492.7023,97.391226 492.91844,98.221954 493.35074,98.826118 C 493.78824,99.425078 494.38719,99.724557 495.14761,99.724556 C 495.90802,99.724557 496.50698,99.425078 496.94449,98.826118 C 497.38198,98.221954 497.60073,97.391226 497.60074,96.333931 C 497.60073,95.276645 497.38198,94.448521 496.94449,93.849556 C 496.50698,93.245397 495.90802,92.943314 495.14761,92.943306 C 494.38719,92.943314 493.78824,93.245397 493.35074,93.849556 C 492.91844,94.448521 492.7023,95.276645 492.7023,96.333931 M 509.48355,95.966743 L 509.48355,96.669868 L 502.87418,96.669868 C 502.93667,97.659455 503.23355,98.414662 503.7648,98.935493 C 504.30126,99.45112 505.04605,99.708932 505.99918,99.708931 C 506.55125,99.708932 507.08511,99.641224 507.60074,99.505806 C 508.12156,99.370391 508.63719,99.167266 509.14761,98.896431 L 509.14761,100.25581 C 508.63198,100.47456 508.10334,100.64122 507.56168,100.75581 C 507.02,100.87039 506.47052,100.92768 505.91324,100.92768 C 504.5174,100.92768 503.41063,100.52143 502.59293,99.708931 C 501.78042,98.896433 501.37418,97.797476 501.37418,96.412056 C 501.37418,94.97977 501.75959,93.844354 502.53043,93.005806 C 503.30646,92.162065 504.35073,91.74019 505.66324,91.740181 C 506.84032,91.74019 507.77,92.120398 508.4523,92.880806 C 509.13979,93.636021 509.48354,94.664666 509.48355,95.966743 M 508.04605,95.544868 C 508.03563,94.758416 507.81427,94.130813 507.38199,93.662056 C 506.9549,93.193313 506.38719,92.958939 505.67886,92.958931 C 504.87678,92.958939 504.23355,93.185501 503.74918,93.638618 C 503.27001,94.09175 502.99397,94.72977 502.92105,95.552681 L 508.04605,95.544868 M 516.88199,93.294868 C 516.72052,93.201126 516.54344,93.133418 516.35074,93.091743 C 516.16323,93.044876 515.9549,93.021439 515.72574,93.021431 C 514.91323,93.021439 514.28823,93.287063 513.85074,93.818306 C 513.41844,94.344354 513.2023,95.102166 513.2023,96.091743 L 513.2023,100.70112 L 511.75699,100.70112 L 511.75699,91.951118 L 513.2023,91.951118 L 513.2023,93.310493 C 513.50438,92.779251 513.89761,92.386023 514.38199,92.130806 C 514.86636,91.870398 515.4549,91.74019 516.14761,91.740181 C 516.24657,91.74019 516.35594,91.748002 516.47574,91.763618 C 516.59552,91.774044 516.72834,91.792273 516.87418,91.818306 L 516.88199,93.294868 M 518.14761,88.560493 L 519.39761,88.560493 C 520.17886,89.789671 520.76219,90.992795 521.14761,92.169868 C 521.53823,93.346959 521.73355,94.516229 521.73355,95.677681 C 521.73355,96.844351 521.53823,98.018829 521.14761,99.201118 C 520.76219,100.38341 520.17886,101.58653 519.39761,102.81049 L 518.14761,102.81049 C 518.84032,101.61778 519.35594,100.43289 519.69449,99.255806 C 520.03824,98.073517 520.21011,96.88081 520.21011,95.677681 C 520.21011,94.474562 520.03824,93.287063 519.69449,92.115181 C 519.35594,90.943316 518.84032,89.758421 518.14761,88.560493"
       id="text1878" />
    <path
       style="fill:#4e9a06;fill-opacity:1;stroke:none;stroke-width:1.875;stroke-linecap:butt;stroke-linejoin:miter;stroke-miterlimit:4;stroke-dashoffset:0;stroke-opacity:1"
       d="M 158.8125,115.1875 L 158.8125,117.0625 L 424.5625,117.0625 L 424.5625,115.1875 L 158.8125,115.1875 z "
       id="path2778" />
    <path
       style="fill:#c00;fill-opacity:1;stroke:none;stroke-width:1.875;stroke-linecap:butt;stroke-linejoin:miter;stroke-miterlimit:4;stroke-dashoffset:0;stroke-opacity:1"
       d="M 424.375,53.21875 L 158.625,115.21875 L 159.03125,117.0625 L 424.78125,55.03125 L 424.375,53.21875 z "
       id="path2780" />
    <path
       style="fill:#c00;fill-opacity:1;stroke:none;stroke-width:1.875;stroke-linecap:butt;stroke-linejoin:miter;stroke-miterlimit:4;stroke-dashoffset:0;stroke-opacity:1"
       d="M 159.03125,53.21875 L 158.625,55.03125 L 424.375,117.0625 L 424.78125,115.21875 L 159.03125,53.21875 z "
       id="path2782" />
    <path
       id="path3849"
       d="M 158.8125,53.1875 L 158.8125,55.0625 L 291.6875,55.0625 L 424.5625,55.0625 L 424.5625,53.1875 L 291.6875,53.1875 L 158.8125,53.1875 z "
       style="fill:#4e9a06;fill-opacity:1;stroke:none;stroke-width:1.875;stroke-linecap:butt;stroke-linejoin:miter;stroke-miterlimit:4;stroke-dashoffset:0;stroke-opacity:1" />
    <path
       id="path5942"
       style="font-size:12px;fill-rule:evenodd;stroke-width:0.625;stroke-linejoin:round;fill:#4e9a06"
       d="M 281.89259,49.58836 L 294.1842,54.108297 L 281.89259,58.628233 C 283.85627,55.959665 283.84496,52.3086 281.89259,49.58836 z " />
    <g
       id="g4822"
       transform="matrix(0.867291,0,0,1.197217,49.54736,-88.61341)">
      <rect
         y="230.31497"
         x="44.29134"
         height="44.29134"
         width="132.87401"
         id="rect4816"
         style="opacity:1;fill:white;fill-opacity:1;stroke:black;stroke-width:1.22670805;stroke-linecap:butt;stroke-linejoin:miter;stroke-miterlimit:4;stroke-dasharray:none;stroke-dashoffset:0;stroke-opacity:1" />
      <rect
         y="230.31497"
         x="44.291348"
         height="44.29134"
         width="132.87401"
         id="rect3855"
         style="opacity:1;fill:url(#linearGradient5850);fill-opacity:1;stroke:black;stroke-width:1.22670805;stroke-linecap:butt;stroke-linejoin:miter;stroke-miterlimit:4;stroke-dasharray:none;stroke-dashoffset:0;stroke-opacity:1" />
    </g>
    <g
       id="g4828"
       transform="matrix(0.866842,0,0,1.197217,93.81189,-99.2187)">
      <rect
         y="239.17323"
         x="177.16536"
         height="44.29134"
         width="132.87401"
         id="rect4818"
         style="opacity:1;fill:white;fill-opacity:1;stroke:black;stroke-width:1.22702527;stroke-linecap:butt;stroke-linejoin:miter;stroke-miterlimit:4;stroke-dasharray:none;stroke-dashoffset:0;stroke-opacity:1" />
      <rect
         y="239.17323"
         x="177.16536"
         height="44.29134"
         width="132.87401"
         id="rect4750"
         style="opacity:1;fill:url(#radialGradient5852);fill-opacity:1;stroke:black;stroke-width:1.22702527;stroke-linecap:butt;stroke-linejoin:miter;stroke-miterlimit:4;stroke-dasharray:none;stroke-dashoffset:0;stroke-opacity:1" />
    </g>
    <g
       id="g4840"
       transform="matrix(0.867291,0,0,1.197217,76.41958,-109.8239)">
      <rect
         y="248.03149"
         x="380.90552"
         height="44.29134"
         width="132.87401"
         id="rect4820"
         style="opacity:1;fill:white;fill-opacity:1;stroke:black;stroke-width:1.22670805;stroke-linecap:butt;stroke-linejoin:miter;stroke-miterlimit:4;stroke-dasharray:none;stroke-dashoffset:0;stroke-opacity:1" />
      <rect
         y="248.03149"
         x="380.90555"
         height="44.29134"
         width="132.87401"
         id="rect4762"
         style="fill:url(#linearGradient5854);fill-opacity:1;stroke:black;stroke-width:1.22670805;stroke-linecap:butt;stroke-linejoin:miter;stroke-miterlimit:4;stroke-dasharray:none;stroke-dashoffset:0;stroke-opacity:1" />
      <rect
         y="248.03149"
         x="380.90555"
         height="44.29134"
         width="132.87401"
         id="rect4766"
         style="fill:url(#radialGradient5856);fill-opacity:1;stroke:black;stroke-width:1.22670805;stroke-linecap:butt;stroke-linejoin:miter;stroke-miterlimit:4;stroke-dasharray:none;stroke-dashoffset:0;stroke-opacity:1" />
    </g>
    <path
       style="font-size:14px;font-style:normal;font-weight:normal;fill:black;fill-opacity:1;stroke:none;stroke-width:1px;stroke-linecap:butt;stroke-linejoin:miter;stroke-opacity:1;font-family:DejaVu Sans"
       d="M 149.91232,48.088333 C 149.20138,48.088342 148.6659,48.439254 148.30588,49.141068 C 147.95041,49.838341 147.77267,50.888795 147.77267,52.292435 C 147.77267,53.691527 147.95041,54.741982 148.30588,55.443802 C 148.6659,56.141069 149.20138,56.489701 149.91232,56.4897 C 150.62781,56.489701 151.16329,56.141069 151.51877,55.443802 C 151.87879,54.741982 152.0588,53.691527 152.05881,52.292435 C 152.0588,50.888795 151.87879,49.838341 151.51877,49.141068 C 151.16329,48.439254 150.62781,48.088342 149.91232,48.088333 M 149.91232,46.994583 C 151.0562,46.994594 151.92892,47.448044 152.53049,48.354935 C 153.1366,49.257287 153.43966,50.569785 153.43967,52.292435 C 153.43966,54.010537 153.1366,55.323036 152.53049,56.229935 C 151.92892,57.132279 151.0562,57.58345 149.91232,57.58345 C 148.76844,57.58345 147.89344,57.132279 147.28732,56.229935 C 146.68576,55.323036 146.38498,54.010537 146.38498,52.292435 C 146.38498,50.569785 146.68576,49.257287 147.28732,48.354935 C 147.89344,47.448044 148.76844,46.994594 149.91232,46.994583"
       id="text4782" />
    <path
       style="font-size:14px;font-style:normal;font-weight:normal;fill:black;fill-opacity:1;stroke:none;stroke-width:1px;stroke-linecap:butt;stroke-linejoin:miter;stroke-opacity:1;font-family:DejaVu Sans"
       d="M 147.07199,119.23827 L 149.32785,119.23827 L 149.32785,111.45214 L 146.87375,111.94433 L 146.87375,110.68652 L 149.31418,110.19433 L 150.69504,110.19433 L 150.69504,119.23827 L 152.9509,119.23827 L 152.9509,120.40038 L 147.07199,120.40038 L 147.07199,119.23827"
       id="text4786" />
    <path
       style="font-size:14px;font-style:normal;font-weight:normal;fill:black;fill-opacity:1;stroke:none;stroke-width:1px;stroke-linecap:butt;stroke-linejoin:miter;stroke-opacity:1;font-family:DejaVu Sans"
       d="M 434.15057,48.088333 C 433.43963,48.088342 432.90415,48.439254 432.54413,49.141068 C 432.18866,49.838341 432.01092,50.888795 432.01093,52.292435 C 432.01092,53.691527 432.18866,54.741982 432.54413,55.443802 C 432.90415,56.141069 433.43963,56.489701 434.15057,56.4897 C 434.86606,56.489701 435.40154,56.141069 435.75702,55.443802 C 436.11704,54.741982 436.29705,53.691527 436.29706,52.292435 C 436.29705,50.888795 436.11704,49.838341 435.75702,49.141068 C 435.40154,48.439254 434.86606,48.088342 434.15057,48.088333 M 434.15057,46.994583 C 435.29445,46.994594 436.16717,47.448044 436.76874,48.354935 C 437.37485,49.257287 437.67791,50.569785 437.67792,52.292435 C 437.67791,54.010537 437.37485,55.323036 436.76874,56.229935 C 436.16717,57.132279 435.29445,57.58345 434.15057,57.58345 C 433.00669,57.58345 432.13169,57.132279 431.52557,56.229935 C 430.92401,55.323036 430.62323,54.010537 430.62323,52.292435 C 430.62323,50.569785 430.92401,49.257287 431.52557,48.354935 C 432.13169,47.448044 433.00669,46.994594 434.15057,46.994583"
       id="text4790" />
    <path
       style="font-size:14px;font-style:normal;font-weight:normal;fill:black;fill-opacity:1;stroke:none;stroke-width:1px;stroke-linecap:butt;stroke-linejoin:miter;stroke-opacity:1;font-family:DejaVu Sans"
       d="M 431.31024,119.23827 L 433.5661,119.23827 L 433.5661,111.45214 L 431.112,111.94433 L 431.112,110.68652 L 433.55243,110.19433 L 434.93329,110.19433 L 434.93329,119.23827 L 437.18915,119.23827 L 437.18915,120.40038 L 431.31024,120.40038 L 431.31024,119.23827"
       id="text4794" />
    <path
       style="font-size:14px;font-style:normal;font-weight:normal;fill:black;fill-opacity:1;stroke:none;stroke-width:1px;stroke-linecap:butt;stroke-linejoin:miter;stroke-opacity:1;font-family:DejaVu Sans"
       d="M 193.004,100.26146 L 193.004,104.32201 L 191.73935,104.32201 L 191.73935,93.753647 L 193.004,93.753647 L 193.004,94.915756 C 193.26832,94.460034 193.601,94.122795 194.00204,93.904037 C 194.40764,93.680738 194.89071,93.569084 195.45126,93.569077 C 196.38095,93.569084 197.13518,93.938225 197.71396,94.676498 C 198.29728,95.414786 198.58895,96.385488 198.58896,97.588608 C 198.58895,98.791735 198.29728,99.762438 197.71396,100.50072 C 197.13518,101.239 196.38095,101.60814 195.45126,101.60814 C 194.89071,101.60814 194.40764,101.49876 194.00204,101.28001 C 193.601,101.05671 193.26832,100.71719 193.004,100.26146 M 197.28329,97.588608 C 197.28329,96.663482 197.09188,95.938874 196.70908,95.41478 C 196.33081,94.88614 195.80901,94.621818 195.14365,94.621811 C 194.47828,94.621818 193.95419,94.88614 193.57138,95.41478 C 193.19312,95.938874 193.004,96.663482 193.004,97.588608 C 193.004,98.513741 193.19312,99.240628 193.57138,99.769272 C 193.95419,100.29336 194.47828,100.55541 195.14365,100.5554 C 195.80901,100.55541 196.33081,100.29336 196.70908,99.769272 C 197.09188,99.240628 197.28329,98.513741 197.28329,97.588608"
       id="text4798" />
    <path
       style="font-size:14px;font-style:normal;font-weight:normal;fill:black;fill-opacity:1;stroke:none;stroke-width:1px;stroke-linecap:butt;stroke-linejoin:miter;stroke-opacity:1;font-family:DejaVu Sans"
       d="M 193.004,73.894051 L 193.004,77.954597 L 191.73935,77.954597 L 191.73935,67.386238 L 193.004,67.386238 L 193.004,68.548347 C 193.26832,68.092625 193.601,67.755386 194.00204,67.536629 C 194.40764,67.313329 194.89071,67.201676 195.45126,67.201668 C 196.38095,67.201676 197.13518,67.570816 197.71396,68.30909 C 198.29728,69.047377 198.58895,70.018079 198.58896,71.221199 C 198.58895,72.424327 198.29728,73.395029 197.71396,74.133308 C 197.13518,74.87159 196.38095,75.24073 195.45126,75.24073 C 194.89071,75.24073 194.40764,75.131355 194.00204,74.912605 C 193.601,74.689298 193.26832,74.34978 193.004,73.894051 M 197.28329,71.221199 C 197.28329,70.296074 197.09188,69.571465 196.70908,69.047371 C 196.33081,68.518732 195.80901,68.254409 195.14365,68.254402 C 194.47828,68.254409 193.95419,68.518732 193.57138,69.047371 C 193.19312,69.571465 193.004,70.296074 193.004,71.221199 C 193.004,72.146332 193.19312,72.873219 193.57138,73.401863 C 193.95419,73.925953 194.47828,74.187997 195.14365,74.187996 C 195.80901,74.187997 196.33081,73.925953 196.70908,73.401863 C 197.09188,72.873219 197.28329,72.146332 197.28329,71.221199"
       id="text4802" />
    <path
       style="font-size:14px;font-style:normal;font-weight:normal;fill:black;fill-opacity:1;stroke:none;stroke-width:1px;stroke-linecap:butt;stroke-linejoin:miter;stroke-opacity:1;font-family:DejaVu Sans"
       d="M 191.93759,128.42242 L 194.19345,128.42242 L 194.19345,120.63629 L 191.73935,121.12848 L 191.73935,119.87067 L 194.17978,119.37848 L 195.56064,119.37848 L 195.56064,128.42242 L 197.8165,128.42242 L 197.8165,129.58453 L 191.93759,129.58453 L 191.93759,128.42242 M 199.77158,125.18903 L 203.45615,125.18903 L 203.45615,126.31012 L 199.77158,126.31012 L 199.77158,125.18903 M 206.68271,128.4361 L 206.68271,132.49664 L 205.41806,132.49664 L 205.41806,121.92828 L 206.68271,121.92828 L 206.68271,123.09039 C 206.94703,122.63467 207.27971,122.29743 207.68076,122.07867 C 208.08635,121.85537 208.56942,121.74372 209.12997,121.74371 C 210.05966,121.74372 210.81389,122.11286 211.39267,122.85114 C 211.976,123.58942 212.26766,124.56012 212.26767,125.76324 C 212.26766,126.96637 211.976,127.93707 211.39267,128.67535 C 210.81389,129.41364 210.05966,129.78278 209.12997,129.78278 C 208.56942,129.78278 208.08635,129.6734 207.68076,129.45465 C 207.27971,129.23134 206.94703,128.89183 206.68271,128.4361 M 210.96201,125.76324 C 210.962,124.83812 210.77059,124.11351 210.38779,123.58942 C 210.00953,123.06078 209.48772,122.79645 208.82236,122.79645 C 208.15699,122.79645 207.6329,123.06078 207.25009,123.58942 C 206.87183,124.11351 206.68271,124.83812 206.68271,125.76324 C 206.68271,126.68838 206.87183,127.41527 207.25009,127.94391 C 207.6329,128.468 208.15699,128.73004 208.82236,128.73004 C 209.48772,128.73004 210.00953,128.468 210.38779,127.94391 C 210.77059,127.41527 210.962,126.68838 210.96201,125.76324"
       id="text4806" />
    <path
       style="font-size:14px;font-style:normal;font-weight:normal;fill:black;fill-opacity:1;stroke:none;stroke-width:1px;stroke-linecap:butt;stroke-linejoin:miter;stroke-opacity:1;font-family:DejaVu Sans"
       d="M 191.93759,46.772301 L 194.19345,46.772301 L 194.19345,38.986168 L 191.73935,39.478355 L 191.73935,38.220543 L 194.17978,37.728355 L 195.56064,37.728355 L 195.56064,46.772301 L 197.8165,46.772301 L 197.8165,47.93441 L 191.93759,47.93441 L 191.93759,46.772301 M 199.77158,43.538902 L 203.45615,43.538902 L 203.45615,44.659996 L 199.77158,44.659996 L 199.77158,43.538902 M 206.68271,46.785973 L 206.68271,50.846519 L 205.41806,50.846519 L 205.41806,40.27816 L 206.68271,40.27816 L 206.68271,41.440269 C 206.94703,40.984547 207.27971,40.647308 207.68076,40.428551 C 208.08635,40.205251 208.56942,40.093598 209.12997,40.09359 C 210.05966,40.093598 210.81389,40.462738 211.39267,41.201012 C 211.976,41.939299 212.26766,42.910001 212.26767,44.113121 C 212.26766,45.316249 211.976,46.286951 211.39267,47.02523 C 210.81389,47.763512 210.05966,48.132652 209.12997,48.132652 C 208.56942,48.132652 208.08635,48.023277 207.68076,47.804527 C 207.27971,47.58122 206.94703,47.241702 206.68271,46.785973 M 210.96201,44.113121 C 210.962,43.187996 210.77059,42.463387 210.38779,41.939293 C 210.00953,41.410654 209.48772,41.146331 208.82236,41.146324 C 208.15699,41.146331 207.6329,41.410654 207.25009,41.939293 C 206.87183,42.463387 206.68271,43.187996 206.68271,44.113121 C 206.68271,45.038254 206.87183,45.765141 207.25009,46.293785 C 207.6329,46.817875 208.15699,47.079919 208.82236,47.079918 C 209.48772,47.079919 210.00953,46.817875 210.38779,46.293785 C 210.77059,45.765141 210.962,45.038254 210.96201,44.113121"
       id="text4810" />
    <path
       style="font-size:14px;font-style:normal;font-weight:normal;fill:black;fill-opacity:1;stroke:none;stroke-width:1px;stroke-linecap:butt;stroke-linejoin:miter;stroke-opacity:1;font-family:DejaVu Sans"
       d="M 6.6584399,198.53033 C 6.9728855,197.96524 7.3488617,197.54825 7.7863696,197.27936 C 8.2238608,197.01049 8.7388342,196.87605 9.3312915,196.87604 C 10.128807,196.87605 10.744041,197.15632 11.176995,197.71686 C 11.609925,198.27285 11.826396,199.06582 11.826409,200.09576 L 11.826409,204.71686 L 10.56176,204.71686 L 10.56176,200.13678 C 10.561749,199.40306 10.431866,198.85847 10.172112,198.50299 C 9.9123357,198.14753 9.5158517,197.96979 8.9826587,197.96979 C 8.330957,197.96979 7.8159836,198.18627 7.4377368,198.6192 C 7.0594739,199.05215 6.8703465,199.64232 6.870354,200.38971 L 6.870354,204.71686 L 5.6057056,204.71686 L 5.6057056,200.13678 C 5.6056993,199.3985 5.4758166,198.85391 5.2160571,198.50299 C 4.9562859,198.14753 4.5552447,197.96979 4.0129321,197.96979 C 3.37035,197.96979 2.8599338,198.18854 2.4816821,198.62604 C 2.1034242,199.05899 1.9142968,199.64688 1.9142993,200.38971 L 1.9142993,204.71686 L 0.64965087,204.71686 L 0.64965087,197.06061 L 1.9142993,197.06061 L 1.9142993,198.25006 C 2.2014059,197.78067 2.545481,197.43431 2.9465259,197.211 C 3.3475636,196.9877 3.8238001,196.87605 4.3752368,196.87604 C 4.9312208,196.87605 5.4029001,197.01732 5.7902759,197.29987 C 6.1821962,197.58242 6.4715839,197.99258 6.6584399,198.53033 M 20.890862,200.57428 L 20.890862,201.18951 L 15.107659,201.18951 C 15.162344,202.0554 15.422109,202.71621 15.886956,203.17194 C 16.356353,203.62311 17.008045,203.84869 17.842034,203.84869 C 18.325101,203.84869 18.792223,203.78945 19.243401,203.67096 C 19.699123,203.55247 20.150295,203.37474 20.596916,203.13776 L 20.596916,204.32721 C 20.145737,204.51862 19.683173,204.66445 19.209221,204.76471 C 18.735257,204.86497 18.254463,204.9151 17.766838,204.9151 C 16.545481,204.9151 15.577057,204.55963 14.861565,203.84869 C 14.150626,203.13776 13.795158,202.17617 13.795159,200.96393 C 13.795158,199.71068 14.132397,198.71719 14.806877,197.98346 C 15.485911,197.24519 16.399647,196.87605 17.548088,196.87604 C 18.578031,196.87605 19.391506,197.20873 19.988518,197.87408 C 20.590073,198.5349 20.890854,199.43496 20.890862,200.57428 M 19.633049,200.20514 C 19.623928,199.51699 19.430243,198.96784 19.051995,198.55768 C 18.678291,198.14753 18.181547,197.94245 17.56176,197.94244 C 16.859933,197.94245 16.297109,198.14069 15.873284,198.53717 C 15.45401,198.93366 15.212474,199.49193 15.148674,200.21198 L 19.633049,200.20514 M 27.808831,197.28619 L 27.808831,198.47565 C 27.453356,198.29336 27.084216,198.15664 26.701409,198.06549 C 26.318591,197.97435 25.922107,197.92878 25.511956,197.92877 C 24.887603,197.92878 24.418203,198.02448 24.103752,198.21588 C 23.793854,198.40729 23.638907,198.6944 23.638909,199.07721 C 23.638907,199.36888 23.75056,199.59902 23.97387,199.76764 C 24.197174,199.93171 24.646067,200.08893 25.320549,200.23932 L 25.751213,200.33502 C 26.644438,200.52643 27.2779,200.79759 27.651604,201.1485 C 28.029853,201.49486 28.21898,201.98021 28.218987,202.60455 C 28.21898,203.31549 27.936428,203.87832 27.371331,204.29303 C 26.810778,204.70774 26.038318,204.9151 25.053948,204.9151 C 24.643788,204.9151 24.215403,204.87408 23.768791,204.79205 C 23.326732,204.71458 22.859611,204.59609 22.367424,204.43658 L 22.367424,203.13776 C 22.832267,203.37929 23.290274,203.56159 23.741448,203.68463 C 24.192617,203.80312 24.639231,203.86237 25.081291,203.86237 C 25.673735,203.86237 26.129464,203.76211 26.448479,203.56158 C 26.767484,203.35651 26.926989,203.0694 26.926995,202.70026 C 26.926989,202.35846 26.810778,202.09642 26.578362,201.91412 C 26.350492,201.73183 25.846912,201.55638 25.06762,201.38776 L 24.63012,201.28522 C 23.850821,201.12116 23.287996,200.87051 22.941643,200.53326 C 22.595288,200.19147 22.422111,199.72435 22.422112,199.1319 C 22.422111,198.41185 22.677319,197.85586 23.187737,197.46393 C 23.698151,197.07201 24.42276,196.87605 25.361565,196.87604 C 25.826404,196.87605 26.263904,196.91023 26.674065,196.97858 C 27.084216,197.04694 27.462471,197.14948 27.808831,197.28619 M 35.082268,197.28619 L 35.082268,198.47565 C 34.726793,198.29336 34.357653,198.15664 33.974846,198.06549 C 33.592029,197.97435 33.195545,197.92878 32.785393,197.92877 C 32.161041,197.92878 31.69164,198.02448 31.37719,198.21588 C 31.067292,198.40729 30.912344,198.6944 30.912346,199.07721 C 30.912344,199.36888 31.023998,199.59902 31.247307,199.76764 C 31.470612,199.93171 31.919505,200.08893 32.593987,200.23932 L 33.024651,200.33502 C 33.917875,200.52643 34.551338,200.79759 34.925041,201.1485 C 35.30329,201.49486 35.492418,201.98021 35.492424,202.60455 C 35.492418,203.31549 35.209866,203.87832 34.644768,204.29303 C 34.084216,204.70774 33.311756,204.9151 32.327385,204.9151 C 31.917226,204.9151 31.488841,204.87408 31.042229,204.79205 C 30.60017,204.71458 30.133048,204.59609 29.640862,204.43658 L 29.640862,203.13776 C 30.105704,203.37929 30.563712,203.56159 31.014885,203.68463 C 31.466055,203.80312 31.912669,203.86237 32.354729,203.86237 C 32.947173,203.86237 33.402902,203.76211 33.721916,203.56158 C 34.040922,203.35651 34.200427,203.0694 34.200432,202.70026 C 34.200427,202.35846 34.084216,202.09642 33.851799,201.91412 C 33.62393,201.73183 33.12035,201.55638 32.341057,201.38776 L 31.903557,201.28522 C 31.124258,201.12116 30.561433,200.87051 30.215081,200.53326 C 29.868725,200.19147 29.695548,199.72435 29.695549,199.1319 C 29.695548,198.41185 29.950757,197.85586 30.461174,197.46393 C 30.971589,197.07201 31.696198,196.87605 32.635002,196.87604 C 33.099842,196.87605 33.537342,196.91023 33.947502,196.97858 C 34.357653,197.04694 34.735908,197.14948 35.082268,197.28619 M 40.954338,200.86823 C 39.938059,200.86823 39.233958,200.98444 38.842034,201.21686 C 38.450104,201.44928 38.254141,201.84577 38.254143,202.40631 C 38.254141,202.85293 38.399974,203.2084 38.691643,203.47272 C 38.987864,203.73248 39.388905,203.86237 39.894768,203.86237 C 40.592029,203.86237 41.150297,203.61627 41.569573,203.12408 C 41.993395,202.62734 42.205309,201.96881 42.205315,201.1485 L 42.205315,200.86823 L 40.954338,200.86823 M 43.463127,200.34869 L 43.463127,204.71686 L 42.205315,204.71686 L 42.205315,203.55475 C 41.9182,204.01959 41.560453,204.36367 41.132073,204.58698 C 40.703683,204.80573 40.179595,204.9151 39.559807,204.9151 C 38.77595,204.9151 38.151602,204.69635 37.68676,204.25885 C 37.226473,203.81679 36.99633,203.22663 36.996331,202.48834 C 36.99633,201.62702 37.283439,200.9776 37.857659,200.5401 C 38.436432,200.1026 39.29776,199.88385 40.441643,199.88385 L 42.205315,199.88385 L 42.205315,199.7608 C 42.205309,199.18203 42.013903,198.73542 41.631096,198.42096 C 41.252836,198.10196 40.719633,197.94245 40.031487,197.94244 C 39.593983,197.94245 39.167877,197.99486 38.753166,198.09967 C 38.338451,198.20449 37.939688,198.36172 37.556877,198.57135 L 37.556877,197.40924 C 38.017162,197.23151 38.463776,197.09935 38.896721,197.01276 C 39.329661,196.92162 39.75121,196.87605 40.16137,196.87604 C 41.268786,196.87605 42.095934,197.16315 42.642815,197.73737 C 43.189683,198.31159 43.46312,199.18203 43.463127,200.34869 M 51.126213,200.79987 C 51.126207,199.88841 50.93708,199.18203 50.558831,198.68073 C 50.185127,198.17943 49.658761,197.92878 48.979729,197.92877 C 48.305246,197.92878 47.77888,198.17943 47.400627,198.68073 C 47.026927,199.18203 46.840078,199.88841 46.840081,200.79987 C 46.840078,201.70677 47.026927,202.41087 47.400627,202.91217 C 47.77888,203.41347 48.305246,203.66412 48.979729,203.66412 C 49.658761,203.66412 50.185127,203.41347 50.558831,202.91217 C 50.93708,202.41087 51.126207,201.70677 51.126213,200.79987 M 52.384026,203.76666 C 52.384018,205.07005 52.094631,206.03847 51.515862,206.67194 C 50.93708,207.30995 50.050687,207.62896 48.856682,207.62897 C 48.414621,207.62896 47.997629,207.59478 47.605706,207.52643 C 47.213776,207.46262 46.833243,207.36236 46.464104,207.22565 L 46.464104,206.00201 C 46.833243,206.20253 47.197826,206.35065 47.557854,206.44635 C 47.917877,206.54205 48.284739,206.5899 48.65844,206.5899 C 49.483305,206.5899 50.100817,206.37343 50.510979,205.94049 C 50.921129,205.5121 51.126207,204.86269 51.126213,203.99225 L 51.126213,203.37018 C 50.866442,203.82135 50.53376,204.15859 50.128166,204.3819 C 49.722563,204.6052 49.237212,204.71686 48.672112,204.71686 C 47.733307,204.71686 46.976797,204.35911 46.402581,203.64362 C 45.828361,202.92812 45.541252,201.98021 45.541252,200.79987 C 45.541252,199.61497 45.828361,198.66478 46.402581,197.94928 C 46.976797,197.23379 47.733307,196.87605 48.672112,196.87604 C 49.237212,196.87605 49.722563,196.9877 50.128166,197.211 C 50.53376,197.43431 50.866442,197.77155 51.126213,198.22272 L 51.126213,197.06061 L 52.384026,197.06061 L 52.384026,203.76666 M 61.523674,200.57428 L 61.523674,201.18951 L 55.740471,201.18951 C 55.795157,202.0554 56.054922,202.71621 56.519768,203.17194 C 56.989166,203.62311 57.640858,203.84869 58.474846,203.84869 C 58.957914,203.84869 59.425036,203.78945 59.876213,203.67096 C 60.331936,203.55247 60.783107,203.37474 61.229729,203.13776 L 61.229729,204.32721 C 60.77855,204.51862 60.315985,204.66445 59.842034,204.76471 C 59.36807,204.86497 58.887276,204.9151 58.399651,204.9151 C 57.178293,204.9151 56.20987,204.55963 55.494377,203.84869 C 54.783439,203.13776 54.42797,202.17617 54.427971,200.96393 C 54.42797,199.71068 54.76521,198.71719 55.43969,197.98346 C 56.118724,197.24519 57.03246,196.87605 58.180901,196.87604 C 59.210843,196.87605 60.024319,197.20873 60.621331,197.87408 C 61.222885,198.5349 61.523666,199.43496 61.523674,200.57428 M 60.265862,200.20514 C 60.256741,199.51699 60.063056,198.96784 59.684807,198.55768 C 59.311104,198.14753 58.814359,197.94245 58.194573,197.94244 C 57.492746,197.94245 56.929921,198.14069 56.506096,198.53717 C 56.086823,198.93366 55.845287,199.49193 55.781487,200.21198 L 60.265862,200.20514 M 79.269768,200.09576 L 78.37426,204.71686 L 77.116448,204.71686 L 77.998284,200.13678 C 78.034731,199.94082 78.062074,199.7722 78.080315,199.63092 C 78.098533,199.48965 78.107647,199.36888 78.107659,199.26862 C 78.107647,198.85847 77.993715,198.53946 77.765862,198.31158 C 77.537986,198.08373 77.218976,197.96979 76.808831,197.96979 C 76.198144,197.96979 75.653548,198.19994 75.175041,198.66022 C 74.696518,199.11595 74.386622,199.71068 74.245354,200.4444 L 73.404534,204.71686 L 72.146721,204.71686 L 73.042229,200.13678 C 73.078681,199.96816 73.106025,199.81322 73.12426,199.67194 C 73.142483,199.52611 73.151598,199.39623 73.151604,199.28229 C 73.151598,198.86758 73.037665,198.54629 72.809807,198.31842 C 72.581937,198.08601 72.267484,197.96979 71.866448,197.96979 C 71.246652,197.96979 70.697498,198.19994 70.218987,198.66022 C 69.740468,199.11595 69.430573,199.71068 69.289299,200.4444 L 68.448479,204.71686 L 67.190666,204.71686 L 68.687737,197.06061 L 69.945549,197.06061 L 69.706291,198.25006 C 70.048085,197.80345 70.446848,197.46394 70.902581,197.23151 C 71.362862,196.99453 71.855049,196.87605 72.379143,196.87604 C 72.935126,196.87605 73.390855,197.02188 73.746331,197.31354 C 74.106349,197.60521 74.32282,198.01081 74.395745,198.53033 C 74.778549,197.99258 75.220606,197.58242 75.721916,197.29987 C 76.227766,197.01732 76.760969,196.87605 77.321526,196.87604 C 77.977765,196.87605 78.483623,197.06517 78.839104,197.44342 C 79.199118,197.82168 79.37913,198.35716 79.379143,199.04987 C 79.37913,199.20026 79.370016,199.3666 79.351799,199.54889 C 79.333558,199.72663 79.306214,199.90892 79.269768,200.09576"
       id="text4849" />
    <path
       style="font-size:14px;font-style:normal;font-weight:normal;fill:black;fill-opacity:1;stroke:none;stroke-width:1px;stroke-linecap:butt;stroke-linejoin:miter;stroke-opacity:1;font-family:DejaVu Sans"
       d="M 209.86507,194.5108 L 216.31819,194.5108 L 216.31819,195.67291 L 211.24593,195.67291 L 211.24593,198.6944 L 216.10628,198.6944 L 216.10628,199.85651 L 211.24593,199.85651 L 211.24593,203.55475 L 216.44124,203.55475 L 216.44124,204.71686 L 209.86507,204.71686 L 209.86507,194.5108 M 221.69124,194.09381 C 221.08056,195.142 220.62711,196.17878 220.33089,197.20416 C 220.03466,198.22956 219.88655,199.26862 219.88655,200.32135 C 219.88655,201.37409 220.03466,202.41771 220.33089,203.45221 C 220.63166,204.48216 221.08511,205.51894 221.69124,206.56256 L 220.59749,206.56256 C 219.91389,205.4916 219.4012,204.43886 219.0594,203.40436 C 218.72216,202.36986 218.55354,201.34219 218.55354,200.32135 C 218.55354,199.30508 218.72216,198.28197 219.0594,197.25201 C 219.39664,196.22207 219.90933,195.16934 220.59749,194.09381 L 221.69124,194.09381 M 235.39046,200.09576 L 234.49495,204.71686 L 233.23714,204.71686 L 234.11897,200.13678 C 234.15542,199.94082 234.18276,199.7722 234.201,199.63092 C 234.21922,199.48965 234.22834,199.36888 234.22835,199.26862 C 234.22834,198.85847 234.1144,198.53946 233.88655,198.31158 C 233.65868,198.08373 233.33967,197.96979 232.92952,197.96979 C 232.31883,197.96979 231.77424,198.19994 231.29573,198.66022 C 230.81721,199.11595 230.50731,199.71068 230.36604,200.4444 L 229.52522,204.71686 L 228.26741,204.71686 L 229.16292,200.13678 C 229.19937,199.96816 229.22671,199.81322 229.24495,199.67194 C 229.26317,199.52611 229.27229,199.39623 229.27229,199.28229 C 229.27229,198.86758 229.15835,198.54629 228.9305,198.31842 C 228.70263,198.08601 228.38817,197.96979 227.98714,197.96979 C 227.36734,197.96979 226.81819,198.19994 226.33968,198.66022 C 225.86116,199.11595 225.55126,199.71068 225.40999,200.4444 L 224.56917,204.71686 L 223.31136,204.71686 L 224.80843,197.06061 L 226.06624,197.06061 L 225.82698,198.25006 C 226.16877,197.80345 226.56754,197.46394 227.02327,197.23151 C 227.48355,196.99453 227.97574,196.87605 228.49983,196.87604 C 229.05582,196.87605 229.51154,197.02188 229.86702,197.31354 C 230.22704,197.60521 230.44351,198.01081 230.51643,198.53033 C 230.89924,197.99258 231.34129,197.58242 231.84261,197.29987 C 232.34846,197.01732 232.88166,196.87605 233.44221,196.87604 C 234.09845,196.87605 234.60431,197.06517 234.95979,197.44342 C 235.31981,197.82168 235.49982,198.35716 235.49983,199.04987 C 235.49982,199.20026 235.4907,199.3666 235.47249,199.54889 C 235.45425,199.72663 235.4269,199.90892 235.39046,200.09576 M 237.58479,194.09381 L 238.67854,194.09381 C 239.36213,195.16934 239.87255,196.22207 240.20979,197.25201 C 240.55159,198.28197 240.72248,199.30508 240.72249,200.32135 C 240.72248,201.34219 240.55159,202.36986 240.20979,203.40436 C 239.87255,204.43886 239.36213,205.4916 238.67854,206.56256 L 237.58479,206.56256 C 238.19091,205.51894 238.64208,204.48216 238.93831,203.45221 C 239.23909,202.41771 239.38948,201.37409 239.38948,200.32135 C 239.38948,199.26862 239.23909,198.22956 238.93831,197.20416 C 238.64208,196.17878 238.19091,195.142 237.58479,194.09381"
       id="text4855" />
    <path
       style="font-size:14px;font-style:normal;font-weight:normal;fill:black;fill-opacity:1;stroke:none;stroke-width:1px;stroke-linecap:butt;stroke-linejoin:miter;stroke-opacity:1;font-family:DejaVu Sans"
       d="M 382.92126,205.4278 C 382.33793,206.40761 381.86169,207.01829 381.49255,207.25983 C 381.12797,207.50592 380.66085,207.62896 380.09119,207.62897 L 379.09998,207.62897 L 379.31189,206.57623 L 380.0365,206.57623 C 380.38741,206.57623 380.68591,206.48053 380.93201,206.28912 C 381.1781,206.09772 381.45381,205.72402 381.75916,205.16803 L 382.1488,204.43658 L 380.45349,197.06061 L 381.7865,197.06061 L 383.05798,202.92584 L 386.57166,197.06061 L 387.89099,197.06061 L 382.92126,205.4278 M 390.24255,194.5108 L 390.24255,198.30475 L 389.08044,198.30475 L 389.08044,194.5108 L 390.24255,194.5108"
       id="text4861" />
    <path
       style="font-size:14px;font-style:normal;font-weight:normal;fill:black;fill-opacity:1;stroke:none;stroke-width:1px;stroke-linecap:butt;stroke-linejoin:miter;stroke-opacity:1;font-family:DejaVu Sans"
       d="M 543.4455,200.09576 L 542.54999,204.71686 L 541.29218,204.71686 L 542.17401,200.13678 C 542.21046,199.94082 542.2378,199.7722 542.25604,199.63092 C 542.27426,199.48965 542.28337,199.36888 542.28339,199.26862 C 542.28337,198.85847 542.16944,198.53946 541.94159,198.31158 C 541.71371,198.08373 541.3947,197.96979 540.98456,197.96979 C 540.37387,197.96979 539.82928,198.19994 539.35077,198.66022 C 538.87225,199.11595 538.56235,199.71068 538.42108,200.4444 L 537.58026,204.71686 L 536.32245,204.71686 L 537.21796,200.13678 C 537.25441,199.96816 537.28175,199.81322 537.29999,199.67194 C 537.31821,199.52611 537.32733,199.39623 537.32733,199.28229 C 537.32733,198.86758 537.21339,198.54629 536.98553,198.31842 C 536.75766,198.08601 536.44321,197.96979 536.04218,197.96979 C 535.42238,197.96979 534.87323,198.19994 534.39471,198.66022 C 533.9162,199.11595 533.6063,199.71068 533.46503,200.4444 L 532.62421,204.71686 L 531.36639,204.71686 L 532.86346,197.06061 L 534.12128,197.06061 L 533.88202,198.25006 C 534.22381,197.80345 534.62258,197.46394 535.07831,197.23151 C 535.53859,196.99453 536.03078,196.87605 536.55487,196.87604 C 537.11085,196.87605 537.56658,197.02188 537.92206,197.31354 C 538.28208,197.60521 538.49855,198.01081 538.57147,198.53033 C 538.95428,197.99258 539.39633,197.58242 539.89764,197.29987 C 540.40349,197.01732 540.9367,196.87605 541.49725,196.87604 C 542.15349,196.87605 542.65935,197.06517 543.01483,197.44342 C 543.37485,197.82168 543.55486,198.35716 543.55487,199.04987 C 543.55486,199.20026 543.54574,199.3666 543.52753,199.54889 C 543.50929,199.72663 543.48194,199.90892 543.4455,200.09576 M 550.45917,198.35944 L 559.22284,198.35944 L 559.22284,199.50787 L 550.45917,199.50787 L 550.45917,198.35944 M 550.45917,201.1485 L 559.22284,201.1485 L 559.22284,202.31061 L 550.45917,202.31061 L 550.45917,201.1485 M 567.91815,195.64557 L 567.91815,203.58209 L 569.58612,203.58209 C 570.99432,203.58209 572.02426,203.26308 572.67596,202.62506 C 573.33221,201.98704 573.66033,200.97988 573.66034,199.60358 C 573.66033,198.2364 573.33221,197.23607 572.67596,196.6026 C 572.02426,195.96459 570.99432,195.64558 569.58612,195.64557 L 567.91815,195.64557 M 566.53729,194.5108 L 569.37421,194.5108 C 571.35206,194.51081 572.80356,194.92325 573.7287,195.74811 C 574.65382,196.56843 575.11638,197.85358 575.11639,199.60358 C 575.11638,201.36269 574.65154,202.65469 573.72186,203.47955 C 572.79217,204.30442 571.34295,204.71686 569.37421,204.71686 L 566.53729,204.71686 L 566.53729,194.5108 M 580.27753,194.09381 C 579.66685,195.142 579.2134,196.17878 578.91718,197.20416 C 578.62095,198.22956 578.47284,199.26862 578.47284,200.32135 C 578.47284,201.37409 578.62095,202.41771 578.91718,203.45221 C 579.21795,204.48216 579.6714,205.51894 580.27753,206.56256 L 579.18378,206.56256 C 578.50018,205.4916 577.98749,204.43886 577.64569,203.40436 C 577.30845,202.36986 577.13983,201.34219 577.13983,200.32135 C 577.13983,199.30508 577.30845,198.28197 577.64569,197.25201 C 577.98293,196.22207 578.49562,195.16934 579.18378,194.09381 L 580.27753,194.09381 M 584.87811,205.4278 C 584.29478,206.40761 583.81854,207.01829 583.4494,207.25983 C 583.08482,207.50592 582.61769,207.62896 582.04803,207.62897 L 581.05682,207.62897 L 581.26874,206.57623 L 581.99335,206.57623 C 582.34426,206.57623 582.64276,206.48053 582.88885,206.28912 C 583.13495,206.09772 583.41066,205.72402 583.716,205.16803 L 584.10565,204.43658 L 582.41034,197.06061 L 583.74335,197.06061 L 585.01483,202.92584 L 588.5285,197.06061 L 589.84784,197.06061 L 584.87811,205.4278 M 592.1994,194.5108 L 592.1994,198.30475 L 591.03729,198.30475 L 591.03729,194.5108 L 592.1994,194.5108 M 594.66718,194.09381 L 595.76093,194.09381 C 596.44452,195.16934 596.95493,196.22207 597.29218,197.25201 C 597.63397,198.28197 597.80487,199.30508 597.80487,200.32135 C 597.80487,201.34219 597.63397,202.36986 597.29218,203.40436 C 596.95493,204.43886 596.44452,205.4916 595.76093,206.56256 L 594.66718,206.56256 C 595.27329,205.51894 595.72446,204.48216 596.02069,203.45221 C 596.32147,202.41771 596.47186,201.37409 596.47186,200.32135 C 596.47186,199.26862 596.32147,198.22956 596.02069,197.20416 C 595.72446,196.17878 595.27329,195.142 594.66718,194.09381"
       id="text4867" />
    <path
       style="font-size:16px;font-style:normal;font-weight:bold;fill:black;fill-opacity:1;stroke:none;stroke-width:1px;stroke-linecap:butt;stroke-linejoin:miter;stroke-opacity:1;font-family:DejaVu Sans"
       d="M 132.6123,217.47661 L 127.90918,217.47661 L 127.16699,219.60161 L 124.14355,219.60161 L 128.46387,207.93755 L 132.0498,207.93755 L 136.37012,219.60161 L 133.34668,219.60161 L 132.6123,217.47661 M 128.65918,215.31255 L 131.85449,215.31255 L 130.26074,210.67192 L 128.65918,215.31255 M 137.78418,207.44536 L 140.58105,207.44536 L 140.58105,219.60161 L 137.78418,219.60161 L 137.78418,207.44536 M 143.28418,210.85161 L 146.08105,210.85161 L 146.08105,219.60161 L 143.28418,219.60161 L 143.28418,210.85161 M 143.28418,207.44536 L 146.08105,207.44536 L 146.08105,209.72661 L 143.28418,209.72661 L 143.28418,207.44536 M 155.85449,211.12505 L 155.85449,213.4063 C 155.47428,213.14589 155.09146,212.95318 154.70605,212.82817 C 154.32584,212.70318 153.93001,212.64068 153.51855,212.64067 C 152.7373,212.64068 152.12793,212.86984 151.69043,213.32817 C 151.25813,213.7813 151.04199,214.41672 151.04199,215.23442 C 151.04199,216.05213 151.25813,216.69015 151.69043,217.14848 C 152.12793,217.60161 152.7373,217.82817 153.51855,217.82817 C 153.95605,217.82817 154.37011,217.76307 154.76074,217.63286 C 155.15657,217.50265 155.52115,217.30994 155.85449,217.05473 L 155.85449,219.3438 C 155.41698,219.50525 154.97167,219.62505 154.51855,219.70317 C 154.07063,219.7865 153.62011,219.82817 153.16699,219.82817 C 151.58886,219.82817 150.35449,219.42453 149.46387,218.61723 C 148.57324,217.80474 148.12793,216.67713 148.12793,215.23442 C 148.12793,213.79172 148.57324,212.66672 149.46387,211.85942 C 150.35449,211.04693 151.58886,210.64068 153.16699,210.64067 C 153.62532,210.64068 154.07584,210.68235 154.51855,210.76567 C 154.96646,210.8438 155.41178,210.9636 155.85449,211.12505 M 167.01855,215.20317 L 167.01855,216.00005 L 160.47949,216.00005 C 160.5472,216.6563 160.78418,217.14849 161.19043,217.47661 C 161.59668,217.80474 162.16438,217.9688 162.89355,217.9688 C 163.48209,217.9688 164.08365,217.88286 164.69824,217.71098 C 165.31803,217.5339 165.95344,217.26828 166.60449,216.91411 L 166.60449,219.07036 C 165.94302,219.32036 165.28157,219.50786 164.62012,219.63286 C 163.95865,219.76307 163.29719,219.82817 162.63574,219.82817 C 161.0524,219.82817 159.82064,219.42713 158.94043,218.62505 C 158.06543,217.81776 157.62793,216.68755 157.62793,215.23442 C 157.62793,213.80734 158.05762,212.68495 158.91699,211.86723 C 159.78157,211.04953 160.96907,210.64068 162.47949,210.64067 C 163.85449,210.64068 164.95344,211.05474 165.77637,211.88286 C 166.60448,212.71099 167.01854,213.81776 167.01855,215.20317 M 164.14355,214.27348 C 164.14355,213.74224 163.9873,213.31516 163.6748,212.99223 C 163.36751,212.66412 162.96386,212.50005 162.46387,212.50005 C 161.9222,212.50005 161.48209,212.6537 161.14355,212.96098 C 160.80501,213.26307 160.59407,213.70057 160.51074,214.27348 L 164.14355,214.27348"
       id="text4875" />
    <path
       style="font-size:16px;font-style:normal;font-weight:bold;fill:black;fill-opacity:1;stroke:none;stroke-width:1px;stroke-linecap:butt;stroke-linejoin:miter;stroke-opacity:1;font-family:DejaVu Sans"
       d="M 290.70322,214.27345 L 290.70322,219.60158 L 287.89072,219.60158 L 287.89072,218.73439 L 287.89072,215.52345 C 287.89071,214.76825 287.87248,214.24742 287.83603,213.96095 C 287.80477,213.6745 287.74748,213.46356 287.66415,213.32814 C 287.55477,213.14586 287.40633,213.00523 287.21884,212.90627 C 287.03134,212.80211 286.81779,212.75002 286.57822,212.75002 C 285.99488,212.75002 285.53654,212.97658 285.20322,213.4297 C 284.86988,213.87763 284.70321,214.50002 284.70322,215.29689 L 284.70322,219.60158 L 281.90634,219.60158 L 281.90634,210.85158 L 284.70322,210.85158 L 284.70322,212.13283 C 285.12509,211.62242 285.573,211.24742 286.04697,211.00783 C 286.52092,210.76304 287.04436,210.64065 287.61728,210.64064 C 288.62769,210.64065 289.39331,210.95054 289.91415,211.57033 C 290.44019,212.19013 290.70321,213.09117 290.70322,214.27345 M 297.47665,212.64064 C 296.85686,212.64065 296.3829,212.86461 296.05478,213.31252 C 295.73186,213.75523 295.5704,214.39585 295.5704,215.23439 C 295.5704,216.07294 295.73186,216.71616 296.05478,217.16408 C 296.3829,217.60679 296.85686,217.82814 297.47665,217.82814 C 298.08602,217.82814 298.55217,217.60679 298.87509,217.16408 C 299.198,216.71616 299.35946,216.07294 299.35947,215.23439 C 299.35946,214.39585 299.198,213.75523 298.87509,213.31252 C 298.55217,212.86461 298.08602,212.64065 297.47665,212.64064 M 297.47665,210.64064 C 298.98186,210.64065 300.15633,211.0469 301.00009,211.85939 C 301.84904,212.6719 302.27352,213.7969 302.27353,215.23439 C 302.27352,216.67189 301.84904,217.79689 301.00009,218.60939 C 300.15633,219.42189 298.98186,219.82814 297.47665,219.82814 C 295.96623,219.82814 294.78394,219.42189 293.92978,218.60939 C 293.08082,217.79689 292.65634,216.67189 292.65634,215.23439 C 292.65634,213.7969 293.08082,212.6719 293.92978,211.85939 C 294.78394,211.0469 295.96623,210.64065 297.47665,210.64064 M 304.31259,210.85158 L 307.10947,210.85158 L 307.10947,219.60158 L 304.31259,219.60158 L 304.31259,210.85158 M 304.31259,207.44533 L 307.10947,207.44533 L 307.10947,209.72658 L 304.31259,209.72658 L 304.31259,207.44533 M 316.64853,211.12502 L 316.64853,213.25002 C 316.04956,213.00002 315.47144,212.81252 314.91415,212.68752 C 314.35686,212.56252 313.83082,212.50002 313.33603,212.50002 C 312.80477,212.50002 312.40894,212.56773 312.14853,212.70314 C 311.89332,212.83336 311.76571,213.03648 311.76572,213.31252 C 311.76571,213.53648 311.86207,213.70835 312.05478,213.82814 C 312.25269,213.94794 312.60425,214.03648 313.10947,214.09377 L 313.60165,214.16408 C 315.03394,214.34637 315.99748,214.64585 316.49228,215.06252 C 316.98706,215.47919 317.23446,216.13283 317.23447,217.02345 C 317.23446,217.95575 316.89071,218.65627 316.20322,219.12502 C 315.51571,219.59377 314.48967,219.82814 313.12509,219.82814 C 312.54696,219.82814 311.948,219.78127 311.32822,219.68752 C 310.71363,219.59897 310.08082,219.46356 309.42978,219.28127 L 309.42978,217.15627 C 309.98707,217.4271 310.55738,217.63023 311.14072,217.76564 C 311.72925,217.90106 312.32561,217.96877 312.92978,217.96877 C 313.47665,217.96877 313.88811,217.89325 314.16415,217.7422 C 314.44019,217.59116 314.57821,217.3672 314.57822,217.07033 C 314.57821,216.82033 314.48186,216.63543 314.28915,216.51564 C 314.10165,216.39064 313.72404,216.29429 313.15634,216.22658 L 312.66415,216.16408 C 311.41936,216.00783 310.54696,215.71877 310.04697,215.29689 C 309.54697,214.87502 309.29697,214.2344 309.29697,213.37502 C 309.29697,212.44794 309.61467,211.76044 310.25009,211.31252 C 310.88551,210.86461 311.85946,210.64065 313.17197,210.64064 C 313.68759,210.64065 314.22925,210.67971 314.79697,210.75783 C 315.36467,210.83596 315.98185,210.95836 316.64853,211.12502 M 328.04697,215.20314 L 328.04697,216.00002 L 321.5079,216.00002 C 321.57561,216.65627 321.81259,217.14846 322.21884,217.47658 C 322.62509,217.8047 323.19279,217.96877 323.92197,217.96877 C 324.5105,217.96877 325.11206,217.88283 325.72665,217.71095 C 326.34644,217.53387 326.98185,217.26825 327.6329,216.91408 L 327.6329,219.07033 C 326.97144,219.32033 326.30998,219.50783 325.64853,219.63283 C 324.98706,219.76304 324.32561,219.82814 323.66415,219.82814 C 322.08082,219.82814 320.84905,219.4271 319.96884,218.62502 C 319.09384,217.81773 318.65634,216.68752 318.65634,215.23439 C 318.65634,213.80731 319.08603,212.68492 319.9454,211.8672 C 320.80998,211.0495 321.99748,210.64065 323.5079,210.64064 C 324.8829,210.64065 325.98185,211.05471 326.80478,211.88283 C 327.63289,212.71096 328.04696,213.81773 328.04697,215.20314 M 325.17197,214.27345 C 325.17196,213.74221 325.01571,213.31513 324.70322,212.9922 C 324.39592,212.66408 323.99227,212.50002 323.49228,212.50002 C 322.95061,212.50002 322.5105,212.65367 322.17197,212.96095 C 321.83342,213.26304 321.62248,213.70054 321.53915,214.27345 L 325.17197,214.27345"
       id="text4879" />
    <path
       style="font-size:16px;font-style:normal;font-weight:bold;fill:black;fill-opacity:1;stroke:none;stroke-width:1px;stroke-linecap:butt;stroke-linejoin:miter;stroke-opacity:1;font-family:DejaVu Sans"
       d="M 452.84106,212.4532 C 453.31502,212.45321 453.67439,212.34904 453.91919,212.1407 C 454.16397,211.93238 454.28637,211.62508 454.28638,211.21883 C 454.28637,210.81779 454.16397,210.51311 453.91919,210.30476 C 453.67439,210.09123 453.31502,209.98446 452.84106,209.98445 L 451.177,209.98445 L 451.177,212.4532 L 452.84106,212.4532 M 452.94263,217.55476 C 453.54679,217.55477 453.99991,217.42716 454.302,217.17195 C 454.60929,216.91675 454.76293,216.53133 454.76294,216.0157 C 454.76293,215.5105 454.61189,215.13289 454.30981,214.88289 C 454.00772,214.62769 453.552,214.50008 452.94263,214.50008 L 451.177,214.50008 L 451.177,217.55476 L 452.94263,217.55476 M 455.7395,213.35945 C 456.38533,213.54696 456.88533,213.89331 457.2395,214.39851 C 457.59366,214.90373 457.77074,215.52352 457.77075,216.25789 C 457.77074,217.38289 457.39053,218.22143 456.63013,218.77351 C 455.8697,219.3256 454.71345,219.60164 453.16138,219.60164 L 448.16919,219.60164 L 448.16919,207.93758 L 452.68481,207.93758 C 454.3046,207.93759 455.47647,208.18238 456.20044,208.67195 C 456.9296,209.16155 457.29418,209.9454 457.29419,211.02351 C 457.29418,211.59123 457.16137,212.0756 456.89575,212.47664 C 456.63012,212.87248 456.2447,213.16675 455.7395,213.35945 M 464.39575,212.6407 C 463.77596,212.64071 463.302,212.86467 462.97388,213.31258 C 462.65096,213.75529 462.4895,214.39591 462.4895,215.23445 C 462.4895,216.073 462.65096,216.71623 462.97388,217.16414 C 463.302,217.60685 463.77596,217.8282 464.39575,217.8282 C 465.00512,217.8282 465.47127,217.60685 465.79419,217.16414 C 466.1171,216.71623 466.27856,216.073 466.27856,215.23445 C 466.27856,214.39591 466.1171,213.75529 465.79419,213.31258 C 465.47127,212.86467 465.00512,212.64071 464.39575,212.6407 M 464.39575,210.6407 C 465.90095,210.64071 467.07543,211.04696 467.91919,211.85945 C 468.76814,212.67196 469.19262,213.79696 469.19263,215.23445 C 469.19262,216.67195 468.76814,217.79695 467.91919,218.60945 C 467.07543,219.42195 465.90095,219.8282 464.39575,219.8282 C 462.88533,219.8282 461.70304,219.42195 460.84888,218.60945 C 459.99992,217.79695 459.57544,216.67195 459.57544,215.23445 C 459.57544,213.79696 459.99992,212.67196 460.84888,211.85945 C 461.70304,211.04696 462.88533,210.64071 464.39575,210.6407 M 475.88794,217.79695 C 476.48689,217.79695 476.94262,217.5782 477.25513,217.1407 C 477.57283,216.7032 477.73168,216.06779 477.73169,215.23445 C 477.73168,214.40112 477.57283,213.76571 477.25513,213.3282 C 476.94262,212.89071 476.48689,212.67196 475.88794,212.67195 C 475.28898,212.67196 474.82804,212.89331 474.50513,213.33601 C 474.18741,213.77352 474.02856,214.40633 474.02856,215.23445 C 474.02856,216.06258 474.18741,216.698 474.50513,217.1407 C 474.82804,217.5782 475.28898,217.79695 475.88794,217.79695 M 474.02856,212.13289 C 474.41398,211.62248 474.84106,211.24748 475.30981,211.00789 C 475.77856,210.76311 476.31762,210.64071 476.927,210.6407 C 478.00512,210.64071 478.89053,211.0704 479.58325,211.92976 C 480.27595,212.78394 480.6223,213.8855 480.62231,215.23445 C 480.6223,216.58341 480.27595,217.68758 479.58325,218.54695 C 478.89053,219.40112 478.00512,219.8282 476.927,219.8282 C 476.31762,219.8282 475.77856,219.70841 475.30981,219.46883 C 474.84106,219.22404 474.41398,218.84643 474.02856,218.33601 L 474.02856,219.60164 L 471.23169,219.60164 L 471.23169,207.44539 L 474.02856,207.44539 L 474.02856,212.13289"
       id="text4883" />
  </g>
</svg>
